<svg width="208" height="167" viewBox="0 0 208 167" fill="none" xmlns="http://www.w3.org/2000/svg">
<path d="M18.0828 63C12.4828 64.2 8.41613 61.8333 6.58279 60.5V155.5C6.58279 163.784 13.2157 166.5 21.5 166.5H183.583C191.867 166.5 200.583 163.784 200.583 155.5V60.5C196.983 62.5 191.083 63 188.583 63V149.5C188.583 152.261 186.344 154.5 183.583 154.5H24.0284C21.2883 154.5 19.0587 152.295 19.0287 149.555L18.0828 63Z" fill="#4A8CF7"/>
<path fill-rule="evenodd" clip-rule="evenodd" d="M14.5828 6.32341L0.0827904 43H40.5828L48.5828 0H23.8824C19.7787 0 16.0916 2.50713 14.5828 6.32341ZM124.083 43H82.5828L84.0828 0H118.583L124.083 43ZM165.583 43H207.083L192.118 6.23045C190.585 2.4633 186.923 0 182.856 0H156.083L165.583 43Z" fill="#4A8CF7"/>
<path d="M48.5828 0L40.5828 43H82.5828L84.0828 0H48.5828Z" fill="#2568D5"/>
<path d="M118.583 0L124.083 43H165.583L156.083 0H118.583Z" fill="#2568D5"/>
<g filter="url(#filter0_i_51_10)">
<path d="M40.5828 43H0.0827904C-0.583876 47.8333 2.48279 57.9 20.0828 59.5C26.2257 59.334 38.8849 55.8271 40.5638 43.1474C40.5698 43.0977 40.5761 43.0486 40.5828 43Z" fill="#4A8CF7"/>
<path d="M82.5828 43H40.5828C40.5761 43.0486 40.5698 43.0977 40.5638 43.1474C39.9793 48.0349 43.1598 57.9161 60.5828 59.5C66.7296 59.3339 80.8913 55.8227 82.567 43.1233C82.5719 43.0818 82.5772 43.0407 82.5828 43Z" fill="#2568D5"/>
<path d="M124.083 43H82.5828C82.5772 43.0407 82.5719 43.0818 82.567 43.1233C81.9856 48.0024 86.1311 57.9135 103.583 59.5C109.729 59.3339 122.398 55.8234 124.067 43.1269C124.072 43.0847 124.077 43.0424 124.083 43Z" fill="#4A8CF7"/>
<path d="M165.583 43H124.083C124.077 43.0424 124.072 43.0847 124.067 43.1269C123.488 48.0073 127.635 57.9139 145.083 59.5C151.233 59.3338 163.913 55.8194 165.569 43.1053L165.575 43.0589C165.577 43.0392 165.58 43.0196 165.583 43Z" fill="#2568D5"/>
<path d="M207.083 43H165.583C165.58 43.0196 165.577 43.0392 165.575 43.0589L165.569 43.1053C165.12 46.9311 168.556 53.3551 177.788 57.1267C183.409 59.4228 189.838 59.8658 195.448 57.5437C200.794 55.3308 206.088 50.955 207.083 43Z" fill="#4A8CF7"/>
</g>
<path fill-rule="evenodd" clip-rule="evenodd" d="M120.667 107.667H127.333C131 107.667 134 110.667 134 114.333V154.333C134 158 131 161 127.333 161H80.6667C77 161 74 158 74 154.333V114.333C74 110.667 77 107.667 80.6667 107.667H87.3333C87.3333 98.3333 94.6667 91 104 91C113.333 91 120.667 98.3333 120.667 107.667ZM114 107.667C114 102 109.667 97.6667 104 97.6667C98.3333 97.6667 94 102 94 107.667H114ZM80.6667 114.333V154.333H127.333V114.333H80.6667Z" fill="#4A8CF7"/>
<path d="M104 127.667C98.3333 127.667 94 123.333 94 117.667H87.3333C87.3333 127 94.6667 134.333 104 134.333C113.333 134.333 120.667 127 120.667 117.667H114C114 123.333 109.667 127.667 104 127.667Z" fill="#2568D5"/>
<defs>
<filter id="filter0_i_51_10" x="0" y="43" width="207.083" height="20.5" filterUnits="userSpaceOnUse" color-interpolation-filters="sRGB">
<feFlood flood-opacity="0" result="BackgroundImageFix"/>
<feBlend mode="normal" in="SourceGraphic" in2="BackgroundImageFix" result="shape"/>
<feColorMatrix in="SourceAlpha" type="matrix" values="0 0 0 0 0 0 0 0 0 0 0 0 0 0 0 0 0 0 127 0" result="hardAlpha"/>
<feOffset dy="4"/>
<feGaussianBlur stdDeviation="10"/>
<feComposite in2="hardAlpha" operator="arithmetic" k2="-1" k3="1"/>
<feColorMatrix type="matrix" values="0 0 0 0 0 0 0 0 0 0 0 0 0 0 0 0 0 0 0.25 0"/>
<feBlend mode="normal" in2="shape" result="effect1_innerShadow_51_10"/>
</filter>
</defs>
</svg>
